#!OML:ASF X:\für Bonn\!DataBase\2005_08_11_Bastian_Final\c3d\Bastian.ASF
:FULLY-SPECIFIED
:DEGREES
570
root 1.39144 1.23633 25.3291 -808.822 -176.011 -717.916
lowerback -0.693932 -2.19702 -3.72084
upperback 5.17386 -2.97777 0.103145
thorax 5.9549 -1.73947 1.99991
lowerneck -13.1769 -3.10013 -3.13278
upperneck 19.592 -3.06058 -1.06862
head 8.29607 -1.6043 -0.146083
rclavicle 3.49861e-014 -8.34896e-015
rhumerus -59.7289 55.0698 -106.249
rradius 25.3347
rwrist -5.08757
rhand -12.3739 -3.66961
rfingers 7.12502
rthumb 13.6967 -33.1989
lclavicle 3.49861e-014 -8.34896e-015
lhumerus -47.0567 -44.3771 96.6238
lradius 20.824
lwrist 17.7848
lhand -7.90951 -6.84889
lfingers 7.12502
lthumb 17.9959 22.3385
rfemur -12.9469 10.3545 18.0406
rtibia 33.4747
rfoot -12.0763 -26.5829
rtoes 4.75033
lfemur -5.36523 5.00547 -21.6923
ltibia 16.1966
lfoot 2.88589 2.38349
ltoes -25.9067
571
root 1.3931 1.23634 25.3297 -808.776 -176.008 -717.928
lowerback -0.732107 -2.20588 -3.73634
upperback 5.08249 -2.98255 0.11032
thorax 5.88169 -1.73713 2.01697
lowerneck -13.6132 -3.09968 -3.02498
upperneck 19.498 -3.09205 -1.06035
head 8.34141 -1.62205 -0.172233
rclavicle -1.35174e-014 9.93923e-016
rhumerus -60.0688 55.1945 -106.66
rradius 25.2989
rwrist -5.31109
rhand -12.3082 -3.86681
rfingers 7.12502
rthumb 13.76 -33.3918
lclavicle -1.35174e-014 9.93923e-016
lhumerus -47.1575 -44.3167 96.6201
lradius 20.7389
lwrist 17.8084
lhand -7.80357 -6.69318
lfingers 7.12502
lthumb 18.0978 22.4848
rfemur -13.0045 10.2304 18.0212
rtibia 33.4838
rfoot -12.0453 -26.4707
rtoes 4.88216
lfemur -5.42347 4.96823 -21.6968
ltibia 16.2138
lfoot 2.86818 2.42671
ltoes -25.8253
572
root 1.39533 1.23545 25.3293 -808.754 -176.009 -717.929
lowerback -0.721027 -2.21645 -3.75534
upperback 4.98478 -2.99221 0.120468
thorax 5.77429 -1.73712 2.04106
lowerneck -14.0181 -3.10187 -2.94167
upperneck 19.4067 -3.12215 -1.04941
head 8.38242 -1.63955 -0.192769
rclavicle 4.77083e-015 -7.95139e-016
rhumerus -60.3717 55.286 -107.03
rradius 25.2425
rwrist -5.51403
rhand -12.2368 -3.99603
rfingers 7.12502
rthumb 13.8288 -33.5163
lclavicle 4.77083e-015 -7.95139e-016
lhumerus -47.2058 -44.1464 96.5204
lradius 20.665
lwrist 17.683
lhand -7.71987 -6.56921
lfingers 7.12502
lthumb 18.1784 22.6013
rfemur -13.0296 10.212 18.0219
rtibia 33.4852
rfoot -12.0778 -26.4623
rtoes 5.00958
lfemur -5.46588 4.9494 -21.6888
ltibia 16.2455
lfoot 2.83554 2.43277
ltoes -25.867
573
root 1.3977 1.23544 25.3281 -808.72 -176.008 -717.93
lowerback -0.749365 -2.22174 -3.77616
upperback 4.9052 -2.99376 0.133858
thorax 5.70851 -1.73442 2.06775
lowerneck -14.4382 -3.09826 -2.84327
upperneck 19.2984 -3.14494 -1.05468
head 8.41974 -1.65442 -0.220561
rclavicle -1.19271e-014 8.15017e-015
rhumerus -60.8362 55.4784 -107.541
rradius 25.2634
rwrist -5.8693
rhand -12.2001 -4.11003
rfingers 7.12502
rthumb 13.8642 -33.6279
lclavicle -1.19271e-014 8.15017e-015
lhumerus -47.2667 -44.065 96.4802
lradius 20.5812
lwrist 17.6784
lhand -7.6631 -6.46172
lfingers 7.12502
lthumb 18.233 22.7037
rfemur -13.0675 10.1333 18.0203
rtibia 33.4888
rfoot -12.0611 -26.3738
rtoes 5.06409
lfemur -5.52487 4.92689 -21.6852
ltibia 16.2874
lfoot 2.81005 2.46298
ltoes -25.8911
574
root 1.40008 1.23518 25.3281 -808.709 -176.008 -717.928
lowerback -0.734615 -2.23243 -3.79721
upperback 4.81248 -3.00414 0.143326
thorax 5.60462 -1.73516 2.0922
lowerneck -14.7902 -3.09455 -2.78732
upperneck 19.1752 -3.17092 -1.00139
head 8.44143 -1.66644 -0.220776
rclavicle -5.40694e-014 1.74931e-014
rhumerus -61.155 55.5711 -107.916
rradius 25.2014
rwrist -6.04434
rhand -12.1416 -4.16777
rfingers 7.12502
rthumb 13.9206 -33.6818
lclavicle -5.40694e-014 1.74931e-014
lhumerus -47.3436 -43.9343 96.4193
lradius 20.5083
lwrist 17.6071
lhand -7.61961 -6.30428
lfingers 7.12502
lthumb 18.2748 22.8573
rfemur -13.0739 10.0975 18.0213
rtibia 33.4836
rfoot -12.091 -26.3303
rtoes 5.20622
lfemur -5.56215 4.91136 -21.677
ltibia 16.3397
lfoot 2.78338 2.46645
ltoes -25.9248
575
root 1.40199 1.23503 25.3277 -808.675 -176.006 -717.929
lowerback -0.762493 -2.23315 -3.79986
upperback 4.73321 -2.99894 0.132626
thorax 5.5361 -1.7275 2.0842
lowerneck -15.1829 -3.09502 -2.65272
upperneck 19.0643 -3.21216 -0.988954
head 8.47225 -1.68409 -0.25012
rclavicle -6.36111e-015 -1.88845e-014
rhumerus -61.631 55.7303 -108.477
rradius 25.2152
rwrist -6.37675
rhand -12.1117 -4.30309
rfingers 7.12502
rthumb 13.9494 -33.8151
lclavicle -6.36111e-015 -1.88845e-014
lhumerus -47.419 -43.898 96.3687
lradius 20.4239
lwrist 17.6178
lhand -7.57391 -6.18961
lfingers 7.12502
lthumb 18.3188 22.9678
rfemur -13.1027 10.0851 18.0206
rtibia 33.4838
rfoot -12.107 -26.2981
rtoes 5.27658
lfemur -5.62252 4.88865 -21.6766
ltibia 16.3873
lfoot 2.73661 2.48805
ltoes -25.9606
576
root 1.40327 1.23427 25.3272 -808.652 -176.005 -717.931
lowerback -0.760768 -2.23771 -3.80708
upperback 4.65139 -3.00171 0.142972
thorax 5.45003 -1.7246 2.10141
lowerneck -15.5616 -3.0878 -2.59769
upperneck 18.9413 -3.2285 -0.953489
head 8.49827 -1.69309 -0.255444
rclavicle 7.95139e-015 -1.98785e-016
rhumerus -61.9624 55.8278 -108.855
rradius 25.182
rwrist -6.61065
rhand -12.1086 -4.38423
rfingers 7.12502
rthumb 13.9524 -33.8961
lclavicle 7.95139e-015 -1.98785e-016
lhumerus -47.5011 -43.8322 96.3547
lradius 20.3653
lwrist 17.6575
lhand -7.58656 -6.04779
lfingers 7.12502
lthumb 18.3066 23.1108
rfemur -13.128 9.97873 18.0139
rtibia 33.4698
rfoot -12.0512 -26.1762
rtoes 5.30103
lfemur -5.673 4.85062 -21.6766
ltibia 16.4357
lfoot 2.70594 2.51907
ltoes -25.9543
577
root 1.40533 1.23363 25.3267 -808.619 -175.982 -717.933
lowerback -0.796379 -2.24799 -3.8488
upperback 4.59117 -3.0093 0.145269
thorax 5.4101 -1.72669 2.12688
lowerneck -15.9844 -3.09537 -2.56013
upperneck 18.8412 -3.26438 -0.894096
head 8.54073 -1.70968 -0.253103
rclavicle -2.46493e-014 -1.98785e-015
rhumerus -62.2843 55.9868 -109.24
rradius 25.1842
rwrist -6.88233
rhand -12.0596 -4.4517
rfingers 7.12502
rthumb 13.9996 -33.9603
lclavicle -2.46493e-014 -1.98785e-015
lhumerus -47.4683 -43.6932 96.2113
lradius 20.2892
lwrist 17.5715
lhand -7.56991 -5.90043
lfingers 7.12502
lthumb 18.3226 23.2566
rfemur -13.1604 9.98778 17.9913
rtibia 33.4604
rfoot -12.0749 -26.1521
rtoes 5.36878
lfemur -5.73499 4.81826 -21.6983
ltibia 16.483
lfoot 2.67612 2.55837
ltoes -25.9768
578
root 1.4071 1.23373 25.3268 -808.584 -175.979 -717.934
lowerback -0.817316 -2.25088 -3.85514
upperback 4.50934 -3.00842 0.149631
thorax 5.33645 -1.72178 2.13662
lowerneck -16.3429 -3.0992 -2.49453
upperneck 18.7144 -3.2956 -0.871563
head 8.5612 -1.72511 -0.265799
rclavicle -2.14687e-014 -1.17283e-014
rhumerus -62.7195 56.1209 -109.711
rradius 25.1974
rwrist -7.19484
rhand -12.0552 -4.50512
rfingers 7.12502
rthumb 14.0038 -34.0134
lclavicle -2.14687e-014 -1.17283e-014
lhumerus -47.5479 -43.64 96.1867
lradius 20.2022
lwrist 17.5966
lhand -7.59132 -5.77309
lfingers 7.12502
lthumb 18.302 23.3859
rfemur -13.186 10.0346 17.9858
rtibia 33.4489
rfoot -12.1502 -26.1525
rtoes 5.61323
lfemur -5.80145 4.84992 -21.6969
ltibia 16.5357
lfoot 2.63378 2.52749
ltoes -26.1261
